<svg width="64" height="65" viewBox="0 0 64 65" fill="none" xmlns="http://www.w3.org/2000/svg">
<g clip-path="url(#clip0_38_25409)">
<path d="M19.6547 5.14207L37.8814 6.27348L37.7311 6.31119L49.7193 0.767291L49.8697 0.691864L50.02 0.729578L56.559 2.80383L56.7845 2.87925L56.8597 3.14325L57.3858 4.91579L57.2355 4.65179L63.4739 9.78085L63.8121 10.0448L63.6242 10.4597L61.7076 14.6836L61.5197 15.0985L61.0311 15.023L56.7845 14.3065L57.461 14.0048L55.3564 17.2481L55.2813 17.399L55.131 17.4744L52.0869 19.2092L52.2372 18.0778L57.724 23.4709L57.3482 23.2823L59.34 23.7349L59.6782 23.8103L59.8285 24.1497L60.3923 25.1303L61.1063 26.2617L59.9037 26.752L55.2061 26.7897H54.9806L54.7551 26.6388L46.9008 21.6606L47.3517 21.8115L42.9924 21.6229L43.8943 21.0195L42.6542 24.3383L42.0904 23.1315L44.0822 23.8103L44.4204 23.9234L44.6083 24.2629L45.36 25.6206L46.1492 27.0537H44.4956L39.1216 27.0914H38.182L38.1069 26.1486L37.6183 20.0767L38.3324 20.9818L30.5156 18.3795L31.6054 18.1533L28.0728 21.4344L28.2231 19.9258L30.8162 23.5086L30.3277 23.0937L32.2819 23.8857L32.7328 24.0743L32.9207 24.5646L33.2965 25.5074L33.973 27.1668H32.1691L28.599 27.2045H28.1104L27.7346 26.8651L21.7217 21.3589L21.0452 20.7555L21.3459 19.9258L22.323 17.2104L23.9389 18.9453L19.4668 20.1898L15.0323 21.4721L15.6336 21.0949L11.8755 24.9794L11.65 22.8675L13.0029 23.7726L13.4163 24.0366L13.5667 24.4892L13.9425 25.5451L14.5813 27.3554H12.6647L9.09455 27.3177H8.64358L8.26778 26.7143L7.02761 24.7531L6.4639 23.848L6.76455 23.32L11.387 15.8905L11.65 15.4756L12.101 15.3625L15.4833 14.4573L14.8068 14.9853L19.542 7.66888L19.9178 9.13971L18.4146 8.23459L19.3917 8.2723C18.377 8.76258 17.4375 9.102 16.498 9.51685L13.6042 10.6483C11.6876 11.4025 9.77101 12.1191 7.81681 12.8356L7.59132 12.9111L7.40342 12.8734L3.19438 12.1568L0.300659 11.5157L3.11921 10.7991L7.29068 9.81856L7.47858 9.78085L7.6289 9.81856L9.50794 10.4597L9.09455 10.4974L14.3934 7.78202L17.0241 6.46205L19.6547 5.14207ZM19.6923 5.40607L17.1744 6.95232L14.6565 8.46087L9.62068 11.4402L9.43278 11.5534L9.20729 11.478L7.29068 10.95H7.59132L3.45744 12.1568L3.38228 10.7614L7.6289 11.2517L7.21552 11.2894L12.8902 8.87572L15.7088 7.63117C16.6483 7.21632 17.5878 6.80147 18.4522 6.34891L18.9407 6.08491L19.4293 6.38662L20.9325 7.25403L21.872 7.78202L21.3083 8.72486L16.7986 16.1544L16.5731 16.5316L16.1222 16.6824L12.7775 17.663L13.4915 17.135L9.01939 24.6777V23.2823L10.2971 25.2057L9.16971 24.6023L12.7399 24.5646L11.4621 26.3748L11.0863 25.3189L11.65 25.9977L10.2596 25.1303L8.86907 24.2252L10.0341 23.0183L13.7921 19.1338L14.0552 18.8698L14.431 18.7567L18.7904 17.5876L23.2625 16.3807L25.7804 15.7019L24.8785 18.1156L23.8638 20.8309L23.488 19.3978L29.5009 24.9794L28.6741 24.6777L32.2443 24.7154L31.1169 26.3748L30.7411 25.432L31.3799 26.1108L29.4633 25.2811L29.1627 25.1303L28.9372 24.8286L26.4193 21.2081L25.818 20.3784L26.5696 19.6995L30.1398 16.4939L30.6283 16.0413L31.2296 16.2676L39.0088 18.983L39.6853 19.2092L39.7229 19.8881L40.1362 25.96L39.1216 25.0171L44.4956 25.0549L43.6688 26.488L42.9172 25.1303L43.4433 25.5828L41.4516 24.8663L40.5496 24.5269L40.8879 23.6217L42.1656 20.3407L42.3911 19.6995L43.0675 19.7372L47.4269 20.0012H47.6524L47.8403 20.1144L55.6195 25.2434L55.1685 25.1303L59.8661 25.168L59.1521 26.2994L58.4005 24.8286L58.9266 25.2434L56.9348 24.7531L56.7093 24.7154L56.559 24.5646L51.1474 19.0961L50.4709 18.4173L51.2977 17.9647L54.3793 16.2676L54.1539 16.4939L56.296 13.2505L56.5214 12.8734L56.9348 12.9488L61.1815 13.7408L60.505 14.0802L62.4968 9.89399L62.6471 10.5728L56.5214 5.33064L56.4087 5.2175L56.3711 5.06664L55.8826 3.2941L56.1832 3.63353L49.7193 1.44614H50.02L37.9566 6.83918L37.8814 6.8769H37.8062L19.6923 5.40607Z" fill="white"/>
<path d="M39.2718 63.6736H17.024V40.3289L9.01935 26.8651H41.0006C41.1885 26.8651 46.2994 26.8274 51.5983 28.9393C56.4838 30.9005 62.3464 35.0867 62.7598 44.0625C62.9853 49.003 61.7827 55.7914 54.7175 60.0531C50.6588 62.5045 46.5249 62.9947 46.0364 63.0324C45.6982 63.1079 42.7293 63.6736 39.2718 63.6736ZM18.0011 63.0324H39.2718C42.7293 63.0324 45.8109 62.3913 45.8485 62.3913H45.9236C45.9612 62.3913 50.1327 61.9765 54.1538 59.5251C59.4903 56.2817 62.1209 50.9264 61.8203 44.0625C61.4821 37.1232 57.9119 32.2204 51.1474 29.505C46.1115 27.4685 41.0757 27.5062 41.0006 27.5062H10.4474L18.0011 40.2157V63.0324Z" fill="white" stroke="white" stroke-width="3" stroke-miterlimit="10"/>
<path d="M34.1985 60.1662L24.3899 40.8192V31.2399H39.2343C45.9612 31.2399 48.6295 33.1633 48.7422 33.2387L48.9301 33.3896L34.1985 60.1662ZM25.367 40.6683L34.236 58.2051L47.8403 33.5404C47.1262 33.1256 44.5332 31.881 39.2719 31.881H25.367V40.6683Z" fill="white" stroke="white" stroke-width="3" stroke-miterlimit="10"/>
<path d="M25.4797 42.818L24.3899 40.7814H24.3147L17.4374 27.808L18.3394 27.6194L26.2689 42.7048L25.4797 42.818Z" fill="white" stroke="white" stroke-width="3" stroke-miterlimit="10"/>
<path d="M30.3652 63.485L17.0616 40.4043L17.9636 40.178L31.2672 63.2587L30.3652 63.485Z" fill="white" stroke="white" stroke-width="3" stroke-miterlimit="10"/>
<path d="M24.202 59.5628L24.3147 51.2658L29.0123 59.5251L24.202 59.5628ZM25.2166 54.7355L25.1791 58.9217H27.5842L25.2166 54.7355Z" fill="white" stroke="white" stroke-width="3" stroke-miterlimit="10"/>
<path d="M38.5954 63.3719L37.6935 63.1456L52.4251 37.7266L52.4627 37.6512C50.6213 34.9358 48.1409 33.729 48.1409 33.729L48.7046 33.201C48.8174 33.2387 51.4105 34.4833 53.3646 37.3872C53.4398 37.5381 53.5526 37.6512 53.6277 37.8021C54.943 39.914 55.5443 42.3654 55.4316 45.0054C55.0934 52.8121 51.7487 55.3766 49.9448 56.7343C49.7945 56.8474 49.6817 56.9229 49.569 57.036L49.5314 57.0737C47.7651 58.1297 44.5332 58.9594 41.1885 59.1857C40.1738 60.8451 38.5954 63.3719 38.5954 63.3719ZM52.9888 38.5186L41.414 58.5068C44.7962 58.2428 47.5396 57.3754 48.8174 56.5834C48.9301 56.508 49.0429 56.3949 49.1932 56.3194C50.9219 54.9995 54.0787 52.5858 54.4169 44.9676C54.5297 42.5917 54.0787 40.442 52.9888 38.5186Z" fill="white" stroke="white" stroke-width="3" stroke-miterlimit="10"/>
<path d="M56.6795 31.541L55.7529 31.3188L58.4942 27.1706H51.9691L50.9266 28.8003L50 28.541L51.2741 26.541H60L56.6795 31.541Z" fill="white" stroke="white" stroke-width="3" stroke-miterlimit="10"/>
<path d="M10.4474 27.5063L30.6283 62.8062L38.5954 63.3719L52.4251 37.7266L48.1033 33.6913L36.0399 55.6783L34.687 57.6017L34.2361 58.2051L17.4375 27.808L10.4474 27.5063Z" fill="white"/>
<path d="M50.3582 28.8639L52.2748 27.4685L59.3024 27.016L55.9577 31.6924L50.3582 28.8639Z" fill="white"/>
</g>
<defs>
<clipPath id="clip0_38_25409">
<rect width="64" height="64" fill="white" transform="translate(0 0.541016)"/>
</clipPath>
</defs>
</svg>
